<?xml version="1.0" encoding="utf-8"?>
<!-- Generator: Adobe Illustrator 23.0.1, SVG Export Plug-In . SVG Version: 6.00 Build 0)  -->
<svg version="1.1" id="Layer_1" xmlns="http://www.w3.org/2000/svg" xmlns:xlink="http://www.w3.org/1999/xlink" x="0px" y="0px"
	 viewBox="0 0 614.6 238.75" style="enable-background:new 0 0 614.6 238.75;" xml:space="preserve">
<style type="text/css">
	.st0{fill:#FFFFFF;}
	.st1{fill:#FFFFFF;stroke:#000000;stroke-miterlimit:10;}
	.st2{fill:#676CBE;}
	.st3{fill:#2F3461;}
	.st4{fill:#91B2B7;}
	.st5{fill:#EFABB6;}
	.st6{fill:#789397;}
	.st7{fill:#B2C284;}
	.st8{fill:#F9E3B9;}
	.st9{opacity:0.3;fill:#EFACB7;}
	.st10{fill:none;stroke:#E0E0E2;stroke-miterlimit:10;}
	.st11{fill:none;stroke:#271C48;stroke-miterlimit:10;}
	.st12{fill:none;stroke:#F9E3B9;stroke-miterlimit:10;}
	.st13{fill:none;stroke:#91B2B7;stroke-miterlimit:10;}
	.st14{fill:#271C48;}
	.st15{fill:#EFACB7;}
	.st16{opacity:0.12;fill:#271C48;}
	.st17{opacity:0.7;fill:#F9E3B9;}
	.st18{opacity:0.12;fill:#F9E3B9;}
	.st19{opacity:0.12;fill:#EFACB7;}
	.st20{opacity:0.9;fill:#F9E3B9;}
	.st21{opacity:0.4;fill:#B2C284;}
</style>
<g>
	<g>
		<path class="st2" d="M26.54,23.89v55.76c0,4.2,1.09,7.44,3.28,9.71c2.18,2.27,5.71,3.4,10.57,3.4h14.84c4.7,0,8.16-1.13,10.39-3.4
			c2.23-2.27,3.34-5.5,3.34-9.71V23.89H83.3v56.88c0,8.82-2.27,15.46-6.8,19.91c-4.53,4.45-11.29,6.68-20.28,6.68H38.66
			c-17.97,0-26.95-8.86-26.95-26.58V23.89H26.54z"/>
		<path class="st2" d="M118.53,107.35h-14.59V40.58c0-5.44,1.56-9.83,4.7-13.17c3.13-3.34,7.95-5.01,14.47-5.01
			c5.77,0,10.16,1.38,13.17,4.14c3.01,2.76,5.38,6.53,7.11,11.31l24.36,53.29c0.49,0.99,1.15,1.81,1.98,2.47
			c0.82,0.66,1.94,0.99,3.34,0.99c1.56,0,2.78-0.43,3.65-1.3c0.86-0.86,1.3-2,1.3-3.4V23.89h14.71v66.65
			c0,5.52-1.59,9.95-4.76,13.29c-3.17,3.34-7.97,5.01-14.4,5.01c-2.89,0-5.42-0.35-7.6-1.05c-2.19-0.7-4.08-1.73-5.69-3.09
			c-1.61-1.36-2.99-2.99-4.14-4.88c-1.15-1.9-2.14-4.04-2.97-6.43L128.8,40.09c-1.07-2.39-2.8-3.59-5.19-3.59
			c-1.65,0-2.9,0.43-3.77,1.3c-0.86,0.87-1.3,2.04-1.3,3.52V107.35z"/>
		<path class="st2" d="M228.58,23.89v83.46h-14.59V23.89H228.58z"/>
		<path class="st2" d="M316.86,23.89v14.59h-32.27c-8.08,0-13.95,2.12-17.62,6.37c-3.67,4.25-5.5,11.19-5.5,20.84
			c0,9.56,1.81,16.47,5.44,20.71c3.63,4.25,9.52,6.37,17.68,6.37h32.27v14.59h-32.27c-12.2,0-21.54-3.44-28.01-10.32
			c-6.47-6.88-9.71-17.33-9.71-31.34c0-14.1,3.23-24.58,9.71-31.47c6.47-6.88,15.81-10.32,28.01-10.32H316.86z"/>
		<path class="st2" d="M380.29,23.89c12.2,0,21.53,3.46,28.01,10.39C414.77,41.2,418,51.71,418,65.8c0,14.02-3.24,24.44-9.71,31.28
			c-6.47,6.84-15.81,10.26-28.01,10.26h-11.37c-12.2,0-21.54-3.42-28.01-10.26c-6.47-6.84-9.71-17.27-9.71-31.28
			c0-14.1,3.23-24.61,9.71-31.53c6.47-6.92,15.81-10.39,28.01-10.39H380.29z M368.92,38.48c-8.08,0-13.95,2.14-17.62,6.43
			c-3.67,4.29-5.5,11.25-5.5,20.9c0,9.56,1.81,16.44,5.44,20.65c3.63,4.21,9.52,6.31,17.68,6.31h11.37c8,0,13.83-2.12,17.5-6.37
			c3.67-4.24,5.5-11.15,5.5-20.71c0-9.56-1.82-16.49-5.44-20.77c-3.63-4.28-9.48-6.43-17.56-6.43H368.92z"/>
		<path class="st2" d="M481.43,23.89c4.7,0,8.74,0.68,12.12,2.04s6.16,3.17,8.35,5.44c2.18,2.27,3.79,4.93,4.82,7.97
			c1.03,3.05,1.54,6.23,1.54,9.52c0,2.64-0.33,5.26-0.99,7.85c-0.66,2.6-1.69,5.03-3.09,7.3c-1.4,2.27-3.22,4.27-5.44,6
			c-2.23,1.73-4.95,3.05-8.16,3.96L510,107.35h-16.2l-19.04-32.27H453c-1.4,0-2.1,0.7-2.1,2.1v30.17H436.3V74.34
			c0-4.7,1.03-8.08,3.09-10.14c2.06-2.06,5.4-3.09,10.02-3.09h32.52c2.06,0,3.83-0.33,5.32-0.99c1.48-0.66,2.68-1.53,3.59-2.6
			c0.91-1.07,1.59-2.31,2.04-3.71c0.45-1.4,0.68-2.84,0.68-4.33c0-2.97-0.93-5.54-2.78-7.73s-4.8-3.28-8.84-3.28h-45.75V23.89
			H481.43z"/>
		<path class="st2" d="M540.41,107.35h-14.59V40.58c0-5.44,1.56-9.83,4.7-13.17c3.13-3.34,7.95-5.01,14.47-5.01
			c5.77,0,10.16,1.38,13.17,4.14c3.01,2.76,5.38,6.53,7.11,11.31l24.36,53.29c0.49,0.99,1.15,1.81,1.98,2.47
			c0.82,0.66,1.94,0.99,3.34,0.99c1.56,0,2.78-0.43,3.65-1.3c0.86-0.86,1.3-2,1.3-3.4V23.89h14.71v66.65
			c0,5.52-1.59,9.95-4.76,13.29c-3.17,3.34-7.97,5.01-14.4,5.01c-2.89,0-5.42-0.35-7.6-1.05c-2.19-0.7-4.08-1.73-5.69-3.09
			c-1.61-1.36-2.99-2.99-4.14-4.88c-1.15-1.9-2.14-4.04-2.97-6.43l-24.36-53.29c-1.07-2.39-2.8-3.59-5.19-3.59
			c-1.65,0-2.9,0.43-3.77,1.3c-0.86,0.87-1.3,2.04-1.3,3.52V107.35z"/>
		<path class="st2" d="M22.91,145.35h35.09v4.18H22c-6.27,0-10.27,2.55-12,7.64c-0.49,1.58-0.73,2.97-0.73,4.18
			c0,3.27,1.39,6.18,4.18,8.73c2.21,1.58,4.15,2.42,5.82,2.55h25.27c3.18,0.36,5.97,1.58,8.36,3.64c2.49,2.36,4,4.79,4.55,7.27
			l0.36,2.36v3.82c-0.36,2.97-1.76,5.88-4.18,8.73c-1.97,1.88-4.52,3.21-7.64,4l-4,0.18H4.91v-4H41.1c6.67,0,10.79-2.73,12.36-8.18
			l0.36-2.91c0-4.64-2.3-8.03-6.91-10.18l-3.27-0.73H20.55c-3.21,0.12-6.3-0.79-9.27-2.73c-4.12-3.49-6.18-7.73-6.18-12.73
			c0-4.67,1.88-8.85,5.64-12.55C13.55,146.44,17.61,145.35,22.91,145.35z"/>
		<path class="st2" d="M79.52,133.85h-4.05v-9.41h4.05V133.85z M79.56,202.63h-4.09v-57.28h4.09V202.63z"/>
		<path class="st2" d="M115.03,145.35h35.09v4.18h-36c-6.27,0-10.27,2.55-12,7.64c-0.49,1.58-0.73,2.97-0.73,4.18
			c0,3.27,1.39,6.18,4.18,8.73c2.21,1.58,4.15,2.42,5.82,2.55h25.27c3.18,0.36,5.97,1.58,8.36,3.64c2.49,2.36,4,4.79,4.55,7.27
			l0.36,2.36v3.82c-0.36,2.97-1.76,5.88-4.18,8.73c-1.97,1.88-4.52,3.21-7.64,4l-4,0.18H97.03v-4h36.19
			c6.67,0,10.79-2.73,12.36-8.18l0.36-2.91c0-4.64-2.3-8.03-6.91-10.18l-3.27-0.73h-23.09c-3.21,0.12-6.3-0.79-9.27-2.73
			c-4.12-3.49-6.18-7.73-6.18-12.73c0-4.67,1.88-8.85,5.64-12.55C105.66,146.44,109.73,145.35,115.03,145.35z"/>
		<path class="st2" d="M171.77,145.17h24.91v4.18h-24.91v23.46c0.06,3.3,0.91,7,2.55,11.09c0.94,2.49,3.55,5.7,7.82,9.64
			c5.27,3.27,10.48,4.91,15.64,4.91h0.54v4.18h-0.18c-8.97,0-16.61-3.21-22.91-9.64c-5.09-5.94-7.64-13.27-7.64-22v-46.55h4.18
			V145.17z"/>
		<path class="st2" d="M243.97,145.54c8.36,0,15.58,2.79,21.64,8.36l2.91,3.64c3.15,4.85,4.73,10.18,4.73,16v1.27h-52.91v0.91
			c0,4.88,1.76,9.67,5.27,14.36c3.94,3.79,7.46,6.09,10.55,6.91c3.09,0.97,5.7,1.45,7.82,1.45c10.64,0,18.27-4.55,22.91-13.64
			c0.73-1.61,1.27-3.55,1.64-5.82h4.36v0.36c0,2.79-1.45,6.73-4.36,11.82c-3.36,4.4-7.73,7.67-13.09,9.82
			c-3.91,1.09-7,1.64-9.27,1.64h-2.91c-5.45,0-10.91-1.76-16.37-5.27c-4.49-4.06-7.15-7.21-8-9.46c-2.06-4.55-3.09-9.15-3.09-13.82
			c0-4.64,1.21-9.55,3.64-14.73c3.18-5.39,7.97-9.33,14.37-11.82C237.09,146.57,240.48,145.9,243.97,145.54z M220.69,170.63h48
			v-0.18c-0.7-4.52-1.97-7.97-3.82-10.36c-2.7-3.85-6.21-6.58-10.55-8.18c-3.58-1.27-6.79-1.94-9.64-2c-2.39,0-5.85,0.67-10.36,2
			c-2.94,1.33-5.85,3.45-8.73,6.36C222.33,162.69,220.69,166.81,220.69,170.63z"/>
		<path class="st2" d="M294.71,153.35c4.42-5.21,9.7-7.82,15.82-7.82h0.36v4h-0.18c-5.85,0-10.33,2.36-13.46,7.09
			c-1.58,2.15-2.36,5.73-2.36,10.73v35.27h-4.18v-57.28h4V153.35z"/>
		<path class="st2" d="M332.54,158.26h0.18c2.61-4.64,6.79-8.15,12.55-10.55c3.36-1.57,7.55-2.36,12.55-2.36h0.73
			c5.15,0,10.73,1.94,16.73,5.82c4.3,3.64,7.09,7.33,8.36,11.09c1.46,2.49,2.18,6.79,2.18,12.91v27.46h-4.18v-28.18
			c0-11.27-5.21-19.03-15.64-23.27c-2.21-0.76-5.18-1.24-8.91-1.46c-6.21,0-11.97,2.12-17.27,6.37l-1.82,2
			c-3.64,4.27-5.45,10.4-5.45,18.37v26.18h-4.18v-78.37h4.18V158.26z"/>
		<path class="st2" d="M431.28,145.54c5.55,0,11,1.39,16.37,4.18c5.48,3.27,9.3,8,11.46,14.18c1.09,3.09,1.64,6.18,1.64,9.27v2.18
			c0,5.58-1.7,10.97-5.09,16.18c-3.42,4-6.15,6.36-8.18,7.09c-3.91,2.3-7.06,3.46-9.46,3.46c0,0.36-2.42,0.54-7.27,0.54h-0.36
			c-5.06,0-10.27-1.7-15.64-5.09c-7.64-5.7-11.46-13.58-11.46-23.64c0-5.42,1.58-10.82,4.73-16.18
			C413.52,150.02,421.28,145.96,431.28,145.54z M407.64,174.26c0,6.06,1.94,11.46,5.82,16.18c2.45,2.73,5.73,4.91,9.82,6.55
			c3.55,0.97,6.33,1.45,8.36,1.45h0.91c5.06,0,10.21-1.76,15.46-5.27c3.12-2.94,5.12-5.48,6-7.64c1.7-3.94,2.55-7.82,2.55-11.64
			c0-3.49-0.91-7.3-2.73-11.46c-2.85-5.15-6.97-8.73-12.36-10.73c-2.64-0.97-5.73-1.58-9.27-1.82c-4.09,0-8.45,1.15-13.09,3.45
			c-4.52,2.79-7.73,6.49-9.64,11.09C408.58,166.6,407.97,169.87,407.64,174.26z"/>
		<path class="st2" d="M506.2,145.54c5.55,0,11,1.39,16.37,4.18c5.48,3.27,9.3,8,11.46,14.18c1.09,3.09,1.64,6.18,1.64,9.27v2.18
			c0,5.58-1.7,10.97-5.09,16.18c-3.42,4-6.15,6.36-8.18,7.09c-3.91,2.3-7.06,3.46-9.46,3.46c0,0.36-2.42,0.54-7.27,0.54h-0.36
			c-5.06,0-10.27-1.7-15.64-5.09c-7.64-5.7-11.46-13.58-11.46-23.64c0-5.42,1.58-10.82,4.73-16.18
			C488.44,150.02,496.2,145.96,506.2,145.54z M482.56,174.26c0,6.06,1.94,11.46,5.82,16.18c2.45,2.73,5.73,4.91,9.82,6.55
			c3.55,0.97,6.33,1.45,8.36,1.45h0.91c5.06,0,10.21-1.76,15.46-5.27c3.12-2.94,5.12-5.48,6-7.64c1.7-3.94,2.55-7.82,2.55-11.64
			c0-3.49-0.91-7.3-2.73-11.46c-2.85-5.15-6.97-8.73-12.36-10.73c-2.64-0.97-5.73-1.58-9.27-1.82c-4.09,0-8.45,1.15-13.09,3.45
			c-4.52,2.79-7.73,6.49-9.64,11.09C483.5,166.6,482.9,169.87,482.56,174.26z"/>
		<path class="st2" d="M606.58,124.44h4v78.19h-4V189.9c-3,4.64-7.18,8.15-12.55,10.55c-4.06,1.46-7.39,2.18-10,2.18h-1.09
			c-6.39,0-11.73-1.27-16-3.82c-5.51-2.94-9.52-7.73-12-14.37c-1.21-4.36-1.82-7.88-1.82-10.55c0-3.24,0.85-7.3,2.55-12.18
			c3.3-6.91,8.46-11.64,15.46-14.18c3.55-1.3,6.7-1.97,9.46-2h0.91c10.51,0,18.7,4,24.55,12l0.36,0.91h0.18V124.44z M557.67,172.81
			v0.91l-0.18,0.18l0.18,0.18v0.73c0,10.09,4.91,17.36,14.73,21.82c3.09,1.09,6.3,1.64,9.64,1.64c8.97,0,15.94-3.7,20.91-11.09
			c2.3-4.27,3.45-8.64,3.45-13.09c0-5.73-1.82-11-5.45-15.82c-2.58-2.79-5.12-4.73-7.64-5.82c-3.85-1.7-7.61-2.55-11.27-2.55
			c-6.55,0-12.3,2.18-17.27,6.55c-3.21,3.24-5.21,6.46-6,9.64C558.03,168.54,557.67,170.78,557.67,172.81z"/>
	</g>
</g>
</svg>
