<?xml version="1.0" encoding="utf-8"?>
<!-- Generator: Adobe Illustrator 23.0.1, SVG Export Plug-In . SVG Version: 6.00 Build 0)  -->
<svg version="1.1" id="Layer_1" xmlns="http://www.w3.org/2000/svg" xmlns:xlink="http://www.w3.org/1999/xlink" x="0px" y="0px"
	 viewBox="0 0 424 448" style="enable-background:new 0 0 424 448;" xml:space="preserve">
<style type="text/css">
	.st0{fill:#FFFFFF;}
	.st1{fill:#FFFFFF;stroke:#000000;stroke-miterlimit:10;}
	.st2{fill:#676CBE;}
	.st3{fill:#2F3461;}
	.st4{fill:#91B2B7;}
	.st5{fill:#EFABB6;}
	.st6{fill:#789397;}
	.st7{fill:#B2C284;}
	.st8{fill:#F9E3B9;}
	.st9{opacity:0.3;fill:#EFACB7;}
	.st10{fill:none;stroke:#E0E0E2;stroke-miterlimit:10;}
	.st11{fill:none;stroke:#271C48;stroke-miterlimit:10;}
	.st12{fill:none;stroke:#F9E3B9;stroke-miterlimit:10;}
	.st13{fill:none;stroke:#91B2B7;stroke-miterlimit:10;}
	.st14{fill:#271C48;}
	.st15{fill:#EFACB7;}
	.st16{opacity:0.12;fill:#271C48;}
	.st17{opacity:0.7;fill:#F9E3B9;}
	.st18{opacity:0.12;fill:#F9E3B9;}
	.st19{opacity:0.12;fill:#EFACB7;}
	.st20{opacity:0.9;fill:#F9E3B9;}
	.st21{opacity:0.4;fill:#B2C284;}
</style>
<g>
	<circle class="st2" cx="237.88" cy="171.94" r="12.77"/>
	<g>
		<path class="st2" d="M202.82,144.84c-6.21,0-10.27-5.69-12.06-16.94c0,0-9.5-104.96-10.06-107.74c-1.24-6.2,8.45-8.62,10.87-1.36
			c0,0,53.45,110.93,51.85,116.2c-1.84,6.08-5.07,9.7-8.65,9.7h-29.9c-0.24,0-0.5,0.04-0.79,0.07
			C203.64,144.81,203.22,144.84,202.82,144.84z"/>
	</g>
	<path class="st2" d="M341.3,205.71c-0.42-18.4-14.7-33.58-32.53-34.57l-25.2,0.07v-14.52l25.35-0.08l0.21,0.01
		c25.29,1.19,45.57,22.59,46.16,48.72l0.01,5.28l-13.99,0.32L341.3,205.71z"/>
	<path class="st2" d="M251.66,122.51V81.88c0,0,0-10.45,6.76-4.64c6.76,5.8,16.53,24.37,15.78,45.27
		C268.19,122.51,251.66,122.51,251.66,122.51z"/>
	<path class="st2" d="M244.8,118.33V87.71c-1.33-1.99-2.63-3.64-3.85-4.89c-8.66-8.88-8.66,7.1-8.66,7.1v2.43L244.8,118.33z"/>
	<g>
		<path class="st2" d="M309.94,284.17c-16.88-9.62-30.87-14.43-41.99-14.43H155.16c-7.41,0-16.47-1.6-27.17-4.81
			c-27.45-12.83-41.17-31.62-41.17-56.36c0-26,12.62-44.79,37.87-56.36c8.92-4.58,26.21-6.87,51.87-6.87h99.74v-15.12H161.74
			c-20.04,0-38.69,4.35-55.98,13.06c-25.25,16.84-37.87,38.38-37.87,64.61v3.44c0,17.18,7.41,33.91,22.23,50.18
			c18.11,15.58,36.5,23.37,55.16,23.37H255.6l15.64,2.06c18.66,5.16,32.11,13.4,40.34,24.74c8.23,13.4,12.35,24.63,12.35,33.68
			c0,18.37-5.61,33.13-16.81,44.3C279.1,405.83,246.62,415.1,212,415.1c-105.28,0-190.93-85.65-190.93-190.93
			c0-93.22,67.16-170.99,155.63-187.6l-1.55-18.65C77.14,35.39,2.5,121.23,2.5,224.17c0,82.29,47.7,153.63,116.89,187.88
			c0.53,0.26,1.05,0.53,1.58,0.79c1.03,0.5,2.08,0.98,3.12,1.47c0.43,0.2,0.86,0.41,1.29,0.6c1.16,0.53,2.34,1.04,3.51,1.55
			c0.31,0.13,0.61,0.27,0.92,0.4c1.29,0.55,2.59,1.09,3.89,1.61c0.19,0.08,0.37,0.15,0.56,0.23c1.4,0.56,2.81,1.1,4.22,1.64
			c0.09,0.03,0.18,0.07,0.26,0.1c1.48,0.56,2.98,1.09,4.48,1.62c0.02,0.01,0.04,0.01,0.05,0.02c21.54,7.5,44.66,11.59,68.71,11.59
			c24.8,0,48.61-4.34,70.7-12.3c0.03-0.01,0.07-0.02,0.1-0.03c0.25-0.09,0.5-0.19,0.75-0.28c1.41-0.51,2.8-1.04,4.2-1.58
			c0.29-0.11,0.58-0.22,0.87-0.33c1.52-0.6,3.04-1.23,4.54-1.86c0.48-0.2,0.95-0.4,1.43-0.61c1.47-0.63,2.93-1.28,4.38-1.94
			c0.43-0.2,0.86-0.4,1.29-0.6c1.19-0.56,2.38-1.12,3.55-1.7c0.31-0.15,0.62-0.29,0.93-0.44c0.02-0.01,0.04-0.03,0.07-0.04
			c6.64-3.3,13.09-6.93,19.31-10.89c-0.06-0.39,0.11-0.85,0.53-1.36c7-8.64,12.26-19.03,15.22-30.5c0.87-2.96,1.57-5.99,2.06-9.13
			c0.63-4.07,0.95-8.28,0.95-12.66C342.87,321.86,331.89,300.78,309.94,284.17z"/>
		<path class="st2" d="M212,14.67c-6,0-9.51,0.27-15.38,0.76l7.54,18.09c3.4-0.18,4.4-0.28,7.84-0.28
			c105.28,0,190.93,85.65,190.93,190.93c0,20.01-3.1,39.31-8.84,57.45h19.4c5.22-18.26,8.01-37.54,8.01-57.45
			C421.5,108.66,327.52,14.67,212,14.67z"/>
	</g>
	<path class="st2" d="M380.18,210.01c-0.93-41.29-32.62-76.43-72.4-79.84h-24.21v14.53h24.21c32.62,3.38,57.65,31.75,58.41,65.65
		l0.01,0.55l13.99-0.33L380.18,210.01z"/>
	<path class="st2" d="M332.59,206.76c-1.68-12.92-11.91-23.17-24.79-24.39v0h-24.23v14.54h24.21v0.08
		c5.36,0.96,9.57,5.16,10.74,10.51c0.14,0.65,0.24,1.31,0.29,1.99l14-0.33C332.76,208.35,332.69,207.55,332.59,206.76z"/>
</g>
</svg>
