<?xml version="1.0" encoding="utf-8"?>
<!-- Generator: Adobe Illustrator 23.0.1, SVG Export Plug-In . SVG Version: 6.00 Build 0)  -->
<svg version="1.1" id="Layer_1" xmlns="http://www.w3.org/2000/svg" xmlns:xlink="http://www.w3.org/1999/xlink" x="0px" y="0px"
	 viewBox="0 0 424 448" style="enable-background:new 0 0 424 448;" xml:space="preserve">
<style type="text/css">
	.st0{fill:#FFFFFF;}
	.st1{fill:#FFFFFF;stroke:#000000;stroke-miterlimit:10;}
	.st2{fill:#676CBE;}
	.st3{fill:#2F3461;}
	.st4{fill:#91B2B7;}
	.st5{fill:#EFABB6;}
	.st6{fill:#789397;}
	.st7{fill:#B2C284;}
	.st8{fill:#F9E3B9;}
	.st9{opacity:0.3;fill:#EFACB7;}
	.st10{fill:none;stroke:#E0E0E2;stroke-miterlimit:10;}
	.st11{fill:none;stroke:#271C48;stroke-miterlimit:10;}
	.st12{fill:none;stroke:#F9E3B9;stroke-miterlimit:10;}
	.st13{fill:none;stroke:#91B2B7;stroke-miterlimit:10;}
	.st14{fill:#271C48;}
	.st15{fill:#EFACB7;}
	.st16{opacity:0.12;fill:#271C48;}
	.st17{opacity:0.7;fill:#F9E3B9;}
	.st18{opacity:0.12;fill:#F9E3B9;}
	.st19{opacity:0.12;fill:#EFACB7;}
	.st20{opacity:0.9;fill:#F9E3B9;}
	.st21{opacity:0.4;fill:#B2C284;}
</style>
<g>
	<circle class="st3" cx="230.82" cy="109.34" r="8.55"/>
	<g>
		<g>
			<path class="st3" d="M207.34,91.18c-4.16,0-6.88-3.81-8.08-11.35c0,0-6.37-70.31-6.74-72.17c-0.83-4.15,5.66-5.78,7.28-0.91
				c0,0,35.8,74.31,34.73,77.84c-1.23,4.07-3.4,6.5-5.8,6.5H208.7c-0.16,0-0.34,0.03-0.53,0.05
				C207.89,91.16,207.61,91.18,207.34,91.18z"/>
		</g>
	</g>
	<path class="st3" d="M300.1,131.96c-0.28-12.33-9.85-22.49-21.79-23.15l-16.88,0.05v-9.72l16.98-0.05l0.14,0.01
		c16.94,0.8,30.53,15.13,30.92,32.64l0.01,3.54l-9.37,0.22L300.1,131.96z"/>
	<path class="st3" d="M240.34,76.22V49.01c0,0,0-7,4.53-3.11c4.53,3.89,11.07,16.33,10.57,30.32
		C251.42,76.22,240.34,76.22,240.34,76.22z"/>
	<path class="st3" d="M235.75,73.43V52.92c-0.89-1.33-1.76-2.44-2.58-3.28c-5.8-5.95-5.8,4.76-5.8,4.76v1.63L235.75,73.43z"/>
	<g>
		<g>
			<path class="st3" d="M17.3,321.36v38.34c0,2.89,0.75,5.11,2.25,6.67c1.5,1.56,3.92,2.34,7.27,2.34h10.2
				c3.23,0,5.61-0.78,7.14-2.34c1.53-1.56,2.29-3.78,2.29-6.67v-38.34h9.86v39.1c0,6.06-1.56,10.63-4.68,13.69
				c-3.12,3.06-7.76,4.59-13.94,4.59H25.63c-12.36,0-18.53-6.09-18.53-18.28v-39.1H17.3z"/>
			<path class="st3" d="M80.54,378.74H70.51v-45.9c0-3.74,1.08-6.76,3.23-9.05c2.15-2.29,5.47-3.44,9.95-3.44
				c3.97,0,6.98,0.95,9.05,2.85c2.07,1.9,3.7,4.49,4.89,7.78l16.74,36.64c0.34,0.68,0.79,1.25,1.36,1.7
				c0.56,0.45,1.33,0.68,2.29,0.68c1.08,0,1.91-0.3,2.51-0.89c0.6-0.59,0.89-1.37,0.89-2.34v-45.39h10.12v45.82
				c0,3.8-1.09,6.84-3.27,9.14c-2.18,2.29-5.48,3.44-9.9,3.44c-1.98,0-3.73-0.24-5.23-0.72c-1.5-0.48-2.8-1.19-3.91-2.13
				c-1.11-0.93-2.06-2.05-2.85-3.36c-0.8-1.3-1.47-2.78-2.04-4.42L87.6,332.5c-0.74-1.64-1.93-2.46-3.57-2.46
				c-1.13,0-2,0.3-2.59,0.89c-0.6,0.59-0.89,1.4-0.89,2.42V378.74z"/>
			<path class="st3" d="M156.19,321.36v57.38h-10.03v-57.38H156.19z"/>
			<path class="st3" d="M216.89,321.36v10.03H194.7c-5.55,0-9.59,1.46-12.11,4.38c-2.52,2.92-3.78,7.69-3.78,14.32
				c0,6.57,1.24,11.32,3.74,14.24c2.49,2.92,6.54,4.38,12.15,4.38h22.19v10.03H194.7c-8.39,0-14.81-2.37-19.25-7.1
				c-4.45-4.73-6.67-11.92-6.67-21.55c0-9.69,2.22-16.9,6.67-21.63c4.45-4.73,10.86-7.1,19.25-7.1H216.89z"/>
			<path class="st3" d="M260.49,321.36c8.39,0,14.8,2.38,19.25,7.14c4.45,4.76,6.67,11.98,6.67,21.68c0,9.63-2.22,16.8-6.67,21.51
				c-4.45,4.71-10.87,7.06-19.25,7.06h-7.82c-8.39,0-14.8-2.35-19.25-7.06c-4.45-4.7-6.67-11.87-6.67-21.51
				c0-9.69,2.22-16.92,6.67-21.68c4.45-4.76,10.87-7.14,19.25-7.14H260.49z M252.67,331.39c-5.55,0-9.59,1.47-12.11,4.42
				c-2.52,2.95-3.78,7.74-3.78,14.37c0,6.57,1.25,11.31,3.74,14.2c2.49,2.89,6.55,4.33,12.16,4.33h7.82c5.5,0,9.5-1.46,12.03-4.38
				c2.52-2.92,3.78-7.66,3.78-14.24c0-6.57-1.25-11.33-3.74-14.28c-2.49-2.95-6.52-4.42-12.07-4.42H252.67z"/>
			<path class="st3" d="M330.03,321.36c3.23,0,6.01,0.47,8.33,1.4c2.33,0.94,4.24,2.18,5.74,3.74c1.5,1.56,2.6,3.39,3.31,5.48
				c0.71,2.1,1.06,4.28,1.06,6.55c0,1.82-0.23,3.61-0.68,5.4c-0.45,1.78-1.16,3.46-2.13,5.02s-2.21,2.93-3.74,4.12
				c-1.53,1.19-3.4,2.1-5.61,2.72l13.35,22.95h-11.13l-13.09-22.19h-14.96c-0.96,0-1.45,0.48-1.45,1.44v20.74H299v-22.7
				c0-3.23,0.71-5.55,2.12-6.97c1.42-1.42,3.71-2.13,6.88-2.13h22.36c1.42,0,2.64-0.22,3.66-0.68c1.02-0.45,1.84-1.05,2.46-1.78
				c0.62-0.74,1.09-1.59,1.4-2.55c0.31-0.96,0.47-1.96,0.47-2.98c0-2.04-0.64-3.81-1.91-5.31s-3.3-2.25-6.08-2.25h-31.45v-10.03
				H330.03z"/>
			<path class="st3" d="M370.57,378.74h-10.03v-45.9c0-3.74,1.08-6.76,3.23-9.05c2.15-2.29,5.47-3.44,9.94-3.44
				c3.97,0,6.98,0.95,9.05,2.85c2.07,1.9,3.7,4.49,4.89,7.78l16.75,36.64c0.34,0.68,0.79,1.25,1.36,1.7s1.33,0.68,2.3,0.68
				c1.07,0,1.91-0.3,2.51-0.89c0.6-0.59,0.89-1.37,0.89-2.34v-45.39h10.12v45.82c0,3.8-1.09,6.84-3.27,9.14
				c-2.18,2.29-5.48,3.44-9.9,3.44c-1.98,0-3.73-0.24-5.23-0.72c-1.5-0.48-2.81-1.19-3.91-2.13c-1.1-0.93-2.05-2.05-2.85-3.36
				c-0.79-1.3-1.47-2.78-2.04-4.42l-16.74-36.64c-0.74-1.64-1.93-2.46-3.57-2.46c-1.14,0-2,0.3-2.59,0.89
				c-0.6,0.59-0.89,1.4-0.89,2.42V378.74z"/>
			<path class="st3" d="M14.8,404.87h24.13v2.87H14.18c-4.31,0-7.06,1.75-8.25,5.25c-0.33,1.08-0.5,2.04-0.5,2.88
				c0,2.25,0.96,4.25,2.88,6c1.52,1.08,2.85,1.67,4,1.75h17.37c2.19,0.25,4.11,1.08,5.75,2.5c1.71,1.63,2.75,3.29,3.12,5l0.25,1.62
				v2.62c-0.25,2.04-1.21,4.04-2.87,6c-1.35,1.29-3.11,2.21-5.25,2.75l-2.75,0.13H2.43v-2.75H27.3c4.58,0,7.42-1.88,8.5-5.63l0.25-2
				c0-3.19-1.58-5.52-4.75-7l-2.25-0.5H13.18c-2.21,0.08-4.33-0.54-6.37-1.87c-2.83-2.4-4.25-5.31-4.25-8.75
				c0-3.21,1.29-6.08,3.87-8.63C8.37,405.62,11.16,404.87,14.8,404.87z"/>
			<path class="st3" d="M53.72,396.96h-2.78v-6.47h2.78V396.96z M53.75,444.24h-2.81v-39.38h2.81V444.24z"/>
			<path class="st3" d="M78.13,404.87h24.13v2.87H77.51c-4.31,0-7.06,1.75-8.25,5.25c-0.33,1.08-0.5,2.04-0.5,2.88
				c0,2.25,0.96,4.25,2.88,6c1.52,1.08,2.85,1.67,4,1.75h17.37c2.19,0.25,4.11,1.08,5.75,2.5c1.71,1.63,2.75,3.29,3.12,5l0.25,1.62
				v2.62c-0.25,2.04-1.21,4.04-2.87,6c-1.35,1.29-3.11,2.21-5.25,2.75l-2.75,0.13h-25.5v-2.75h24.88c4.58,0,7.42-1.88,8.5-5.63
				l0.25-2c0-3.19-1.58-5.52-4.75-7l-2.25-0.5H76.51c-2.21,0.08-4.33-0.54-6.37-1.87c-2.83-2.4-4.25-5.31-4.25-8.75
				c0-3.21,1.29-6.08,3.87-8.63C71.69,405.62,74.48,404.87,78.13,404.87z"/>
			<path class="st3" d="M117.14,404.74h17.13v2.87h-17.13v16.13c0.04,2.27,0.63,4.81,1.75,7.63c0.65,1.71,2.44,3.92,5.38,6.63
				c3.63,2.25,7.21,3.38,10.75,3.38h0.37v2.87h-0.12c-6.17,0-11.42-2.21-15.75-6.63c-3.5-4.08-5.25-9.13-5.25-15.13v-32h2.87V404.74
				z"/>
			<path class="st3" d="M166.77,404.99c5.75,0,10.71,1.92,14.88,5.75l2,2.5c2.17,3.33,3.25,7,3.25,11v0.87h-36.38v0.63
				c0,3.35,1.21,6.65,3.63,9.88c2.71,2.61,5.13,4.19,7.25,4.75c2.13,0.67,3.92,1,5.38,1c7.31,0,12.56-3.12,15.75-9.38
				c0.5-1.1,0.87-2.44,1.12-4h3v0.25c0,1.92-1,4.63-3,8.13c-2.31,3.02-5.31,5.27-9,6.75c-2.69,0.75-4.81,1.12-6.37,1.12h-2
				c-3.75,0-7.5-1.21-11.25-3.63c-3.09-2.79-4.92-4.96-5.5-6.5c-1.42-3.12-2.12-6.29-2.12-9.5c0-3.19,0.83-6.56,2.5-10.13
				c2.19-3.71,5.48-6.42,9.87-8.12C162.04,405.7,164.38,405.24,166.77,404.99z M150.77,422.24h33v-0.13
				c-0.48-3.1-1.35-5.48-2.62-7.13c-1.85-2.64-4.27-4.52-7.25-5.63c-2.46-0.87-4.67-1.33-6.63-1.37c-1.65,0-4.02,0.46-7.12,1.37
				c-2.02,0.92-4.02,2.38-6,4.38C151.89,416.79,150.77,419.62,150.77,422.24z"/>
			<path class="st3" d="M201.66,410.37c3.04-3.58,6.66-5.38,10.87-5.38h0.25v2.75h-0.13c-4.02,0-7.1,1.63-9.25,4.88
				c-1.08,1.48-1.63,3.94-1.63,7.37v24.25h-2.87v-39.38h2.75V410.37z"/>
			<path class="st3" d="M227.66,413.74h0.12c1.79-3.19,4.67-5.61,8.63-7.25c2.31-1.08,5.19-1.63,8.63-1.63h0.5
				c3.54,0,7.38,1.33,11.5,4c2.96,2.5,4.88,5.04,5.75,7.62c1,1.71,1.5,4.67,1.5,8.88v18.88h-2.88v-19.38c0-7.75-3.58-13.08-10.75-16
				c-1.52-0.52-3.56-0.86-6.12-1c-4.27,0-8.23,1.46-11.88,4.38l-1.25,1.37c-2.5,2.94-3.75,7.15-3.75,12.63v18h-2.88v-53.88h2.88
				V413.74z"/>
			<path class="st3" d="M295.54,404.99c3.81,0,7.56,0.96,11.25,2.87c3.77,2.25,6.4,5.5,7.87,9.75c0.75,2.12,1.13,4.25,1.13,6.37v1.5
				c0,3.83-1.17,7.54-3.5,11.12c-2.36,2.75-4.23,4.38-5.63,4.88c-2.69,1.58-4.85,2.37-6.5,2.37c0,0.25-1.67,0.38-5,0.38h-0.25
				c-3.48,0-7.06-1.17-10.75-3.5c-5.25-3.92-7.87-9.33-7.87-16.25c0-3.73,1.08-7.44,3.25-11.13
				C283.34,408.08,288.67,405.28,295.54,404.99z M279.29,424.74c0,4.17,1.33,7.88,4,11.13c1.69,1.88,3.94,3.38,6.75,4.5
				c2.44,0.67,4.35,1,5.75,1h0.63c3.48,0,7.02-1.21,10.63-3.63c2.14-2.02,3.52-3.77,4.12-5.25c1.17-2.71,1.75-5.38,1.75-8
				c0-2.4-0.63-5.02-1.88-7.88c-1.96-3.54-4.79-6-8.5-7.37c-1.81-0.67-3.94-1.08-6.37-1.25c-2.81,0-5.81,0.79-9,2.38
				c-3.1,1.92-5.31,4.46-6.62,7.62C279.94,419.47,279.52,421.72,279.29,424.74z"/>
			<path class="st3" d="M347.05,404.99c3.81,0,7.56,0.96,11.25,2.87c3.77,2.25,6.4,5.5,7.87,9.75c0.75,2.12,1.12,4.25,1.12,6.37v1.5
				c0,3.83-1.17,7.54-3.5,11.12c-2.35,2.75-4.23,4.38-5.63,4.88c-2.69,1.58-4.85,2.37-6.5,2.37c0,0.25-1.67,0.38-5,0.38h-0.25
				c-3.48,0-7.06-1.17-10.75-3.5c-5.25-3.92-7.87-9.33-7.87-16.25c0-3.73,1.08-7.44,3.25-11.13
				C334.84,408.08,340.18,405.28,347.05,404.99z M330.8,424.74c0,4.17,1.33,7.88,4,11.13c1.69,1.88,3.94,3.38,6.75,4.5
				c2.44,0.67,4.35,1,5.75,1h0.62c3.48,0,7.02-1.21,10.63-3.63c2.14-2.02,3.52-3.77,4.12-5.25c1.17-2.71,1.75-5.38,1.75-8
				c0-2.4-0.63-5.02-1.88-7.88c-1.96-3.54-4.79-6-8.5-7.37c-1.81-0.67-3.94-1.08-6.37-1.25c-2.81,0-5.81,0.79-9,2.38
				c-3.1,1.92-5.31,4.46-6.63,7.62C331.45,419.47,331.03,421.72,330.8,424.74z"/>
			<path class="st3" d="M416.06,390.49h2.75v53.75h-2.75v-8.75c-2.06,3.19-4.94,5.61-8.63,7.25c-2.79,1-5.08,1.5-6.88,1.5h-0.75
				c-4.4,0-8.06-0.87-11-2.62c-3.79-2.02-6.54-5.31-8.25-9.88c-0.83-3-1.25-5.42-1.25-7.25c0-2.23,0.58-5.02,1.75-8.38
				c2.27-4.75,5.81-8,10.63-9.75c2.44-0.89,4.6-1.35,6.5-1.37h0.62c7.23,0,12.85,2.75,16.88,8.25l0.25,0.63h0.13V390.49z
				 M382.44,423.74v0.63l-0.12,0.13l0.12,0.12v0.5c0,6.94,3.38,11.94,10.13,15c2.13,0.75,4.33,1.13,6.63,1.13
				c6.17,0,10.96-2.54,14.38-7.63c1.58-2.94,2.37-5.94,2.37-9c0-3.94-1.25-7.56-3.75-10.87c-1.77-1.92-3.52-3.25-5.25-4
				c-2.64-1.17-5.23-1.75-7.75-1.75c-4.5,0-8.46,1.5-11.88,4.5c-2.21,2.23-3.58,4.44-4.12,6.63
				C382.69,420.81,382.44,422.35,382.44,423.74z"/>
		</g>
		<g>
			<g>
				<path class="st3" d="M279.09,184.51c-11.31-6.45-20.68-9.67-28.13-9.67h-75.55c-4.96,0-11.03-1.07-18.2-3.22
					c-18.38-8.59-27.58-21.18-27.58-37.76c0-17.42,8.46-30,25.37-37.75c5.97-3.07,17.56-4.6,34.74-4.6h66.81V81.38h-76.74
					c-13.42,0-25.92,2.92-37.5,8.75c-16.91,11.28-25.37,25.71-25.37,43.28v2.3c0,11.51,4.96,22.72,14.89,33.61
					c12.13,10.44,24.45,15.65,36.95,15.65h73.9l10.48,1.38c12.5,3.45,21.51,8.98,27.02,16.57c5.51,8.98,8.27,16.5,8.27,22.56
					c0,12.31-3.76,22.19-11.26,29.68c-18.77,10.84-40.53,17.05-63.72,17.05c-70.52,0-127.9-57.37-127.9-127.9
					c0-62.44,44.99-114.54,104.25-125.67L188.8,6.16c-65.65,11.7-115.65,69.2-115.65,138.16c0,55.12,31.95,102.91,78.3,125.85
					c0.35,0.17,0.7,0.35,1.06,0.53c0.69,0.34,1.39,0.66,2.09,0.98c0.29,0.13,0.57,0.27,0.86,0.4c0.78,0.36,1.57,0.7,2.35,1.04
					c0.21,0.09,0.41,0.18,0.62,0.27c0.86,0.37,1.73,0.73,2.61,1.08c0.13,0.05,0.25,0.1,0.38,0.15c0.94,0.38,1.88,0.74,2.83,1.1
					c0.06,0.02,0.12,0.05,0.18,0.07c0.99,0.37,1.99,0.73,3,1.08c0.01,0,0.02,0.01,0.04,0.01c14.43,5.02,29.91,7.76,46.03,7.76
					c16.61,0,32.56-2.91,47.36-8.24c0.02-0.01,0.04-0.01,0.07-0.02c0.17-0.06,0.33-0.13,0.5-0.19c0.94-0.34,1.88-0.7,2.81-1.06
					c0.19-0.08,0.39-0.15,0.58-0.22c1.02-0.4,2.03-0.82,3.04-1.25c0.32-0.13,0.64-0.27,0.96-0.41c0.98-0.42,1.96-0.86,2.93-1.3
					c0.29-0.13,0.57-0.27,0.86-0.4c0.8-0.37,1.59-0.75,2.38-1.14c0.21-0.1,0.42-0.2,0.62-0.3c0.02-0.01,0.03-0.02,0.04-0.03
					c4.45-2.21,8.77-4.64,12.93-7.3c-0.04-0.26,0.07-0.57,0.35-0.91c4.69-5.79,8.21-12.75,10.2-20.43c0.58-1.98,1.05-4.01,1.38-6.12
					c0.42-2.72,0.64-5.55,0.64-8.48C301.15,209.76,293.8,195.64,279.09,184.51z"/>
				<path class="st3" d="M213.49,3.99c-4.02,0-6.37,0.18-10.3,0.51l5.05,12.12c2.28-0.12,2.95-0.19,5.25-0.19
					c70.52,0,127.9,57.37,127.9,127.9c0,13.41-2.08,26.33-5.92,38.49h12.99c3.49-12.23,5.37-25.15,5.37-38.49
					C353.82,66.94,290.87,3.99,213.49,3.99z"/>
			</g>
		</g>
	</g>
	<path class="st3" d="M326.14,134.83c-0.62-27.66-21.85-51.2-48.5-53.48h-16.22v9.73h16.22c21.85,2.27,38.62,21.27,39.13,43.98
		l0.01,0.37l9.37-0.22L326.14,134.83z"/>
	<path class="st3" d="M294.26,132.66c-1.13-8.65-7.98-15.52-16.6-16.34v0h-16.23v9.74h16.22v0.05c3.59,0.64,6.41,3.45,7.19,7.04
		c0.09,0.43,0.16,0.88,0.19,1.33l9.38-0.22C294.38,133.72,294.33,133.19,294.26,132.66z"/>
</g>
</svg>
