<?xml version="1.0" standalone="no"?>
<!DOCTYPE svg PUBLIC "-//W3C//DTD SVG 20010904//EN"
 "http://www.w3.org/TR/2001/REC-SVG-20010904/DTD/svg10.dtd">
<svg version="1.0" xmlns="http://www.w3.org/2000/svg"
 width="934.000000pt" height="934.000000pt" viewBox="0 0 934.000000 934.000000"
 preserveAspectRatio="xMidYMid meet">
<metadata>
Created by potrace 1.11, written by Peter Selinger 2001-2013
</metadata>
<g transform="translate(0.000000,934.000000) scale(0.100000,-0.100000)"
fill="#000000" stroke="none">
<path d="M4048 9010 l-30 -30 7 -103 c4 -56 8 -104 10 -107 2 -3 6 -45 10 -95
3 -49 8 -97 10 -105 2 -8 7 -58 10 -110 4 -52 9 -102 10 -111 2 -9 6 -52 10
-95 3 -43 8 -95 10 -114 2 -19 7 -71 10 -115 4 -44 8 -91 10 -105 4 -23 7 -58
20 -220 3 -30 7 -77 10 -105 2 -27 7 -77 10 -110 3 -33 8 -78 10 -100 2 -22 7
-71 10 -110 3 -38 8 -90 10 -115 12 -130 15 -161 20 -225 3 -38 8 -86 10 -105
2 -19 7 -69 11 -110 3 -41 8 -78 11 -82 2 -5 -11 -8 -29 -8 -359 -2 -833 -10
-868 -15 -194 -27 -257 -39 -365 -66 -231 -58 -465 -155 -593 -245 -245 -176
-447 -404 -567 -643 -44 -88 -99 -252 -115 -342 -6 -35 -14 -75 -17 -89 -13
-58 -12 -406 2 -485 45 -269 171 -526 376 -771 147 -177 451 -378 720 -477 52
-20 106 -38 120 -41 228 -52 117 -48 1474 -50 688 -1 1259 -5 1270 -8 11 -4
47 -10 80 -14 141 -16 180 -23 255 -45 329 -98 601 -271 753 -477 100 -136
229 -430 258 -587 17 -92 13 -282 -7 -390 -29 -152 -58 -243 -115 -362 -42
-85 -103 -175 -175 -256 -82 -92 -524 -298 -859 -399 -298 -90 -596 -146 -880
-165 -194 -12 -586 -6 -695 11 -14 3 -49 7 -78 10 -322 36 -782 159 -1047 281
-31 14 -58 25 -61 25 -8 0 -266 128 -324 161 -470 267 -831 571 -1179 994
-197 239 -428 624 -547 908 -14 34 -32 76 -39 92 -128 297 -245 782 -270 1120
-3 39 -8 90 -11 115 -7 65 -7 411 0 505 8 100 16 183 21 215 2 14 6 45 9 70 7
62 34 214 60 337 56 263 195 648 328 908 67 131 81 155 142 255 31 52 62 104
69 115 7 11 24 36 40 56 15 20 27 40 27 43 0 4 18 30 40 59 22 29 51 65 63 82
126 168 412 476 547 590 223 189 457 357 645 462 66 37 379 192 435 216 72 30
216 85 255 96 22 7 49 16 60 21 48 21 341 98 445 117 52 10 50 2 36 168 -4 50
-9 121 -12 159 -3 39 -6 71 -7 73 -6 5 -250 -49 -389 -87 -839 -229 -1616
-726 -2180 -1395 -424 -504 -723 -1080 -888 -1710 -38 -144 -84 -366 -95 -450
-2 -22 -7 -60 -10 -85 -14 -103 -18 -150 -31 -305 -6 -76 -6 -468 0 -525 2
-19 7 -78 11 -130 3 -52 8 -102 10 -110 2 -8 7 -40 10 -70 11 -97 24 -172 61
-355 14 -72 54 -228 80 -315 215 -715 605 -1360 1134 -1876 102 -100 153 -148
191 -179 14 -11 51 -43 84 -71 159 -136 466 -346 660 -452 502 -274 1084 -463
1600 -517 33 -4 71 -8 85 -10 153 -23 723 -24 860 -1 14 2 52 7 85 10 33 3 69
8 80 10 11 2 45 7 75 11 46 6 172 29 279 51 85 18 308 80 426 119 266 89 490
188 734 323 184 102 218 125 245 163 181 254 262 424 325 681 43 175 43 173
46 388 3 180 -2 239 -29 368 -66 310 -228 592 -472 821 -119 111 -173 150
-294 214 -249 131 -478 212 -658 233 -35 4 -631 8 -1325 9 -694 1 -1278 4
-1297 7 -195 31 -367 77 -462 124 -247 124 -457 292 -582 466 -90 127 -169
317 -193 466 -10 62 -10 373 0 437 65 406 310 715 735 923 113 56 245 97 367
116 289 44 289 44 1680 45 l1151 1 -1 158 -1 157 -264 2 c-146 1 -305 2 -355
2 l-90 1 -44 113 c-37 96 -209 492 -296 682 -122 265 -202 439 -254 549 -34
70 -61 130 -61 131 0 1 -32 69 -71 151 -39 82 -84 176 -99 209 -15 33 -58 123
-95 200 -37 77 -87 182 -112 234 -59 124 -77 141 -153 141 -33 0 -48 -6 -72
-30z"/>
<path d="M4557 9034 c-1 -1 -47 -5 -102 -7 -55 -3 -101 -6 -102 -6 -2 -1 86
-220 116 -286 9 -22 22 -51 28 -65 l10 -25 184 -1 c165 -1 299 -7 399 -19 19
-3 58 -7 85 -11 41 -4 136 -19 250 -39 11 -2 54 -11 95 -20 41 -9 83 -18 93
-20 10 -2 27 -7 37 -10 10 -3 27 -8 37 -10 96 -19 395 -123 551 -191 176 -76
479 -235 547 -286 6 -4 53 -36 105 -71 434 -291 803 -663 1108 -1119 40 -59
72 -110 72 -113 0 -3 16 -32 37 -63 46 -73 178 -337 233 -467 162 -382 261
-788 297 -1220 10 -112 10 -532 0 -640 -9 -102 -30 -268 -43 -345 -7 -39 -10
-53 -25 -125 -6 -27 -12 -61 -15 -75 -3 -14 -23 -91 -44 -171 -22 -81 -40
-149 -40 -152 0 -3 90 -6 200 -6 l200 -1 17 58 c20 68 20 69 28 107 3 16 15
67 26 114 11 47 22 100 25 119 3 19 8 44 10 56 4 24 30 207 39 276 27 223 27
769 0 930 -2 14 -7 50 -10 80 -3 30 -7 66 -10 80 -3 14 -7 43 -10 65 -3 22 -7
51 -10 65 -3 14 -12 61 -20 105 -130 679 -454 1361 -914 1920 -107 130 -119
143 -286 311 -446 448 -989 797 -1560 1005 -44 16 -89 34 -100 39 -53 25 -464
135 -575 154 -19 3 -45 8 -56 10 -24 5 -73 13 -131 22 -21 3 -47 7 -59 9 -11
2 -52 6 -90 10 -38 4 -80 8 -94 11 -72 11 -524 27 -533 18z"/>
<path d="M5532 7750 c-12 -12 -22 -26 -23 -33 0 -7 -3 -21 -5 -32 -7 -31 -8
-884 -1 -891 5 -5 362 -9 453 -5 31 2 12 236 -35 416 -60 236 -208 496 -313
551 -36 19 -50 18 -76 -6z"/>
<path d="M5140 7648 c-26 -28 -38 -74 -43 -162 -4 -63 -2 -74 36 -150 22 -44
63 -130 92 -191 86 -181 127 -265 129 -265 2 0 3 143 3 318 l1 317 -39 50
c-78 102 -136 129 -179 83z"/>
<path d="M6164 6478 l1 -153 265 -1 c293 -1 368 -10 524 -64 198 -69 355 -168
512 -325 237 -237 377 -533 410 -866 4 -41 8 -81 10 -89 1 -8 3 -20 3 -25 1
-10 249 -10 279 0 11 4 10 100 -3 185 -2 14 -6 45 -10 70 -11 74 -63 265 -95
345 -128 321 -346 600 -618 791 -175 123 -414 226 -602 259 -19 4 -57 10 -85
15 -27 5 -172 9 -321 9 l-272 2 2 -153z"/>
<path d="M6166 6072 c-2 -4 -3 -73 -3 -154 l0 -146 293 -1 c266 0 301 -2 369
-20 133 -37 233 -96 332 -199 134 -139 204 -313 207 -517 l2 -90 104 2 c58 1
125 2 149 2 l44 1 -6 123 c-3 67 -9 136 -12 152 -57 286 -213 528 -440 682
-108 73 -250 133 -375 158 -45 9 -659 15 -664 7z"/>
<path d="M5130 6010 c-191 -65 -246 -305 -102 -445 75 -73 203 -94 298 -49 57
27 118 93 137 147 21 62 16 160 -11 213 -60 117 -199 176 -322 134z"/>
<path d="M6165 5540 c-5 -10 -2 -300 4 -301 3 0 123 -1 266 -2 245 -2 262 -4
301 -24 81 -43 146 -129 157 -208 l4 -30 89 2 c49 1 115 2 148 2 l58 1 -6 48
c-20 162 -107 312 -237 408 -64 47 -170 90 -245 100 -66 8 -534 12 -539 4z"/>
</g>
</svg>
